Coordinates
version=1
nRows=6
nColumns=63
inDegrees=yes

Units are S.I. units (second, meters, Newtons, ...)
If the header above contains a line with 'inDegrees', this indicates whether rotational values are in degrees (yes) or radians (no).

endheader
time	pelvis_tilt	pelvis_list	pelvis_rotation	pelvis_tx	pelvis_ty	pelvis_tz	hip_flexion_r	hip_adduction_r	hip_rotation_r	knee_angle_r	knee_angle_r_beta	ankle_angle_r	subtalar_angle_r	mtp_angle_r	hip_flexion_l	hip_adduction_l	hip_rotation_l	knee_angle_l	knee_angle_l_beta	ankle_angle_l	subtalar_angle_l	mtp_angle_l	L5_S1_Flex_Ext	L5_S1_Lat_Bending	L5_S1_axial_rotation	L4_L5_Flex_Ext	L4_L5_Lat_Bending	L4_L5_axial_rotation	L3_L4_Flex_Ext	L3_L4_Lat_Bending	L3_L4_axial_rotation	L2_L3_Flex_Ext	L2_L3_Lat_Bending	L2_L3_axial_rotation	L1_L2_Flex_Ext	L1_L2_Lat_Bending	L1_L2_axial_rotation	L1_T12_Flex_Ext	L1_T12_Lat_Bending	L1_T12_axial_rotation	Abs_r3	Abs_r2	Abs_r1	Abs_t1	Abs_t2	neck_flexion	neck_bending	neck_rotation	arm_flex_r	arm_add_r	arm_rot_r	elbow_flex_r	pro_sup_r	wrist_flex_r	wrist_dev_r	arm_flex_l	arm_add_l	arm_rot_l	elbow_flex_l	pro_sup_l	wrist_flex_l	wrist_dev_l
      5.74576271	     -1.66242589	     -4.49109544	     82.69748814	      0.26369308	      0.75680961	      0.70768619	      4.36584645	     -0.16061399	    -12.57983775	     10.70056279	      0.18676005	     23.97042189	     18.42347781	      0.00000000	      3.44666995	     -2.16840589	      3.00376997	      8.75218127	      0.15275438	     12.75354493	    -10.11793048	      0.00000000	     -0.15181233	     -0.07636249	      1.12229657	     -0.28193067	     -0.10156211	      1.19244011	     -0.24941247	     -0.18566775	      1.19244011	     -0.17350631	     -0.18566775	      0.98200950	     -0.14097293	     -0.15571839	      0.91186597	     -0.08674556	     -0.11828549	      0.84172243	     -1.08438027	     -0.86382774	      6.24187685	      0.00000000	      0.00000000	     16.21262569	     -4.81671336	     -9.55336116	     -9.48569495	    -18.31196078	     21.28472315	     57.80330554	     78.60974380	      2.67652856	      3.77169252	     -2.94866422	    -19.60068280	     35.82435549	     33.68657419	     88.55746609	     -8.84303479	     -8.43023838
      5.76271186	     -1.66688119	     -4.65188253	     83.09796376	      0.26351706	      0.75662759	      0.70779952	      4.44287167	     -0.16779472	    -12.96934910	     10.73825679	      0.18741794	     23.62466748	     18.38176425	      0.00000000	      3.70210432	     -2.19272149	      3.34765274	      8.77137532	      0.15308938	     12.55979558	    -10.08290924	      0.00000000	     -0.14189913	     -0.07551738	      1.03757779	     -0.26352087	     -0.10043811	      1.10242640	     -0.23312608	     -0.18361295	      1.10242640	     -0.16217651	     -0.18361295	      0.90788057	     -0.13176753	     -0.15399503	      0.84303195	     -0.08108116	     -0.11697642	      0.77818334	     -1.01357128	     -0.85426767	      5.77069640	      0.00000000	      0.00000000	     16.82979690	     -4.77018908	     -9.26827087	     -9.55774759	    -18.20253619	     21.11465304	     57.73438645	     79.07825260	      2.85034829	      3.93617726	     -3.08465498	    -19.64778253	     35.51724537	     33.82521054	     88.56394203	     -8.81487511	     -8.50653265
      5.77966102	     -1.67273150	     -4.93459162	     83.55963727	      0.26310271	      0.75631963	      0.70842893	      4.72255891	     -0.16289515	    -13.26985617	     10.80320786	      0.18855155	     23.32653769	     18.30525438	      0.00000000	      4.10238007	     -2.19548166	      3.95515766	      8.72319995	      0.15224856	     12.13219474	    -10.44004059	      0.00000000	     -0.12432610	     -0.07242659	      0.97139937	     -0.23088600	     -0.09632737	      1.03211183	     -0.20425535	     -0.17609802	      1.03211183	     -0.14209230	     -0.17609802	      0.84997445	     -0.11544921	     -0.14769231	      0.78926199	     -0.07103993	     -0.11218879	      0.72854953	     -0.88804888	     -0.81930411	      5.40263190	      0.00000000	      0.00000000	     17.48315179	     -4.95428931	     -9.23657989	     -9.63996105	    -18.19031964	     21.01000574	     57.73864923	     79.30045471	      2.78006670	      3.89305258	     -2.90238327	    -19.68065092	     35.76519250	     33.70009024	     88.55817996	     -8.92501574	     -8.94794906
      5.79661017	     -1.68511677	     -5.24134251	     84.07186288	      0.26255086	      0.75602430	      0.70949714	      5.08509357	     -0.15834388	    -13.43153215	     10.86534921	      0.18963612	     23.14350912	     18.16742153	      0.00000000	      4.49465200	     -2.13950008	      5.31200465	      8.51576799	      0.14862819	     11.29230808	    -11.77912449	      0.00000000	     -0.10834797	     -0.07019202	      0.93207696	     -0.20121302	     -0.09335539	      0.99033177	     -0.17800488	     -0.17066488	      0.99033177	     -0.12383090	     -0.17066488	      0.81556734	     -0.10061193	     -0.14313557	      0.75731253	     -0.06191003	     -0.10872744	      0.69905772	     -0.77391874	     -0.79402617	      5.18393241	      0.00000000	      0.00000000	     17.96048889	     -5.19050250	     -9.43666757	     -9.73375713	    -18.10836748	     20.57004789	     57.70881951	     79.38571471	      3.24758975	      3.96157421	     -2.44987672	    -19.75922618	     36.47792669	     33.57286759	     88.51857869	     -9.03887106	     -9.03074208
      5.81355932	     -1.75597173	     -5.53481722	     84.63465568	      0.26210402	      0.75577413	      0.71086176	      5.47601201	     -0.20754639	    -13.64549698	     10.90708341	      0.19036452	     23.14632593	     18.10327286	      0.00000000	      4.90567216	     -2.10340314	      5.69647016	      8.30087867	      0.14487766	     10.87943885	    -11.50947623	      0.00000000	     -0.09540404	     -0.07897942	      0.87593879	     -0.17717484	     -0.10504262	      0.93068496	     -0.15673930	     -0.19203055	      0.93068496	     -0.10903728	     -0.19203055	      0.76644644	     -0.08859219	     -0.16105483	      0.71170027	     -0.05451387	     -0.12233912	      0.65695409	     -0.68146152	     -0.89343096	      4.87170876	      0.00000000	      0.00000000	     18.07322197	     -5.11090402	     -9.68849251	     -9.51705876	    -18.22502035	     21.00274103	     57.57788848	     78.82517850	      2.96485692	      3.47750511	     -2.12271022	    -19.82725191	     36.72249144	     33.44496243	     88.51521039	     -9.16712058	     -9.46207337
      5.83050847	     -1.88382310	     -5.78678431	     85.05374872	      0.26185533	      0.75558292	      0.71237274	      5.89350305	     -0.31880115	    -13.75561556	     10.99922253	      0.19197265	     23.32249692	     18.06276735	      0.00000000	      5.17963931	     -1.92424859	      7.16499162	      7.90514289	      0.13797077	      9.84107930	    -13.15556985	      0.00000000	     -0.08545350	     -0.09621839	      0.85641848	     -0.15869570	     -0.12797046	      0.90994464	     -0.14039156	     -0.23394540	      0.90994464	     -0.09766481	     -0.23394540	      0.74936617	     -0.07935212	     -0.19620855	      0.69584002	     -0.04882813	     -0.14904229	      0.64231386	     -0.61038582	     -1.08844171	      4.76314267	      0.00000000	      0.00000000	     17.69459177	     -4.63582226	    -10.00639843	     -9.24288999	    -18.25725547	     21.21981521	     57.31937146	     78.39636809	      3.35443678	      3.15396902	     -1.88281907	    -19.92133974	     36.56487472	     33.55572350	     88.55319242	     -8.81700305	     -9.38600871
